<?xml version="1.0" encoding="utf-8"?>
<!-- Generator: Adobe Illustrator 16.0.0, SVG Export Plug-In . SVG Version: 6.00 Build 0)  -->
<!DOCTYPE svg PUBLIC "-//W3C//DTD SVG 1.1//EN" "http://www.w3.org/Graphics/SVG/1.1/DTD/svg11.dtd">
<svg version="1.1" id="Layer_1" xmlns="http://www.w3.org/2000/svg" xmlns:xlink="http://www.w3.org/1999/xlink" x="0px" y="0px"
	 width="262.915px" height="35.682px" viewBox="0 0 262.915 35.682" enable-background="new 0 0 262.915 35.682"
	 xml:space="preserve">
<path fill="#F9E837" d="M28.747,29.558L25.872,0.003L22.96,30.049C24.848,29.841,26.78,29.678,28.747,29.558"/>
<path fill="#66B556" d="M35.762,29.341l0.009-29.338L25.872,0v0.003l2.875,29.556C31.035,29.418,33.378,29.347,35.762,29.341"/>
<path fill="#003DA6" d="M22.96,30.049l2.912-30.046V0.001L0,0.003l0.013,35.679C6.089,33.02,14.005,31.036,22.96,30.049"/>
<path fill="#003DA6" d="M98.677,8.644c0.463,0.085,2.136,0.571,2.136,1.759v19.025h5.657V7.966h-7.793V8.644z"/>
<path fill="#003DA6" d="M54.204,7.967v0.676c0.685,0.144,2.171,0.558,1.568,1.897l-8.433,18.888h4.455l2.642-5.887h9.341
	l2.309,5.887h5.86L63.577,7.967H54.204z M55.632,20.871l3.79-8.44l3.308,8.44H55.632z"/>
<path fill="#003DA6" d="M140.916,7.967v0.676c0.683,0.144,2.17,0.558,1.567,1.897l-8.434,18.888h4.457l2.639-5.887h9.342l2.31,5.887
	h5.864l-8.375-21.461H140.916z M142.345,20.871l3.787-8.44l3.313,8.44H142.345z"/>
<path fill="#003DA6" d="M125.87,29.427l8.943-21.461h-4.229l-6.558,15.737l-6.24-15.737h-7.949v0.679
	c0.918,0.176,1.951,0.569,2.42,1.758l7.544,19.024H125.87z"/>
<path fill="#003DA6" d="M86.669,29.427l8.945-21.461h-4.233l-6.558,15.737L78.581,7.966h-7.946v0.679
	c0.919,0.176,1.947,0.569,2.42,1.758l7.539,19.024H86.669z"/>
<g>
	<path fill="#2354A0" d="M171.118,28.653V20.55h-1.396v-1.23h1.396v-0.993c0-0.627,0.057-1.093,0.168-1.397
		c0.152-0.41,0.42-0.743,0.804-0.998s0.921-0.382,1.612-0.382c0.445,0,0.938,0.053,1.477,0.158l-0.236,1.38
		c-0.328-0.059-0.639-0.088-0.932-0.088c-0.48,0-0.82,0.103-1.02,0.308s-0.299,0.589-0.299,1.151v0.861h1.818v1.23h-1.818v8.104
		H171.118z"/>
	<path fill="#2354A0" d="M175.153,23.986c0-1.729,0.48-3.009,1.441-3.841c0.803-0.691,1.781-1.037,2.936-1.037
		c1.283,0,2.332,0.421,3.146,1.261c0.814,0.842,1.221,2.003,1.221,3.485c0,1.201-0.18,2.146-0.54,2.835
		c-0.36,0.688-0.885,1.223-1.573,1.604s-1.439,0.571-2.254,0.571c-1.307,0-2.363-0.419-3.169-1.257S175.153,25.563,175.153,23.986z
		 M176.778,23.986c0,1.195,0.262,2.09,0.783,2.686c0.521,0.594,1.178,0.892,1.969,0.892c0.785,0,1.438-0.299,1.959-0.896
		s0.783-1.509,0.783-2.733c0-1.154-0.263-2.029-0.787-2.623c-0.524-0.596-1.176-0.893-1.955-0.893c-0.791,0-1.447,0.296-1.969,0.888
		S176.778,22.791,176.778,23.986z"/>
	<path fill="#2354A0" d="M185.735,28.653v-9.334h1.424v1.415c0.363-0.662,0.698-1.099,1.006-1.31s0.646-0.316,1.016-0.316
		c0.533,0,1.074,0.17,1.625,0.51l-0.545,1.468c-0.387-0.229-0.773-0.343-1.16-0.343c-0.346,0-0.656,0.104-0.932,0.312
		c-0.275,0.209-0.471,0.497-0.588,0.866c-0.176,0.563-0.264,1.178-0.264,1.846v4.887H185.735z"/>
	<path fill="#2354A0" d="M194.563,28.653l4.948-12.885h1.837l5.273,12.885h-1.942l-1.503-3.902h-5.388l-1.415,3.902H194.563z
		 M198.28,23.362h4.368l-1.345-3.568c-0.41-1.084-0.715-1.975-0.914-2.672c-0.164,0.826-0.396,1.646-0.694,2.461L198.28,23.362z"/>
	<path fill="#2354A0" d="M213.837,28.653v-1.178c-0.592,0.926-1.462,1.389-2.61,1.389c-0.744,0-1.429-0.205-2.052-0.615
		c-0.625-0.41-1.107-0.983-1.451-1.718c-0.342-0.736-0.514-1.581-0.514-2.536c0-0.932,0.155-1.776,0.466-2.536
		c0.311-0.758,0.776-1.34,1.397-1.744s1.315-0.606,2.083-0.606c0.563,0,1.063,0.118,1.503,0.356
		c0.439,0.236,0.797,0.546,1.072,0.927v-4.623h1.573v12.885H213.837z M208.836,23.995c0,1.195,0.252,2.089,0.756,2.681
		s1.099,0.888,1.784,0.888c0.691,0,1.279-0.282,1.762-0.849c0.484-0.564,0.726-1.428,0.726-2.588c0-1.277-0.246-2.215-0.738-2.813
		s-1.099-0.896-1.819-0.896c-0.703,0-1.291,0.287-1.762,0.861C209.071,21.854,208.836,22.759,208.836,23.995z"/>
	<path fill="#2354A0" d="M220.385,28.653l-3.551-9.334h1.67l2.004,5.59c0.217,0.604,0.416,1.23,0.598,1.881
		c0.141-0.492,0.337-1.084,0.589-1.775l2.074-5.695h1.626l-3.533,9.334H220.385z"/>
	<path fill="#2354A0" d="M226.801,17.588v-1.819h1.582v1.819H226.801z M226.801,28.653v-9.334h1.582v9.334H226.801z"/>
	<path fill="#2354A0" d="M230.158,25.867l1.564-0.246c0.088,0.627,0.333,1.107,0.733,1.441c0.402,0.334,0.963,0.501,1.684,0.501
		c0.727,0,1.266-0.147,1.617-0.444c0.352-0.295,0.527-0.643,0.527-1.041c0-0.357-0.155-0.639-0.466-0.844
		c-0.217-0.141-0.756-0.319-1.617-0.536c-1.16-0.293-1.964-0.546-2.413-0.761c-0.447-0.213-0.787-0.51-1.02-0.887
		c-0.23-0.379-0.347-0.796-0.347-1.253c0-0.416,0.095-0.802,0.286-1.155c0.189-0.355,0.449-0.649,0.777-0.884
		c0.246-0.182,0.582-0.335,1.006-0.462c0.426-0.125,0.881-0.188,1.367-0.188c0.732,0,1.375,0.105,1.93,0.316
		c0.553,0.211,0.962,0.497,1.226,0.856c0.264,0.361,0.445,0.843,0.545,1.446l-1.547,0.211c-0.07-0.48-0.274-0.855-0.61-1.125
		c-0.338-0.27-0.813-0.404-1.429-0.404c-0.727,0-1.245,0.12-1.556,0.36s-0.466,0.521-0.466,0.844c0,0.205,0.064,0.39,0.193,0.554
		c0.129,0.17,0.331,0.311,0.606,0.422c0.158,0.059,0.624,0.193,1.397,0.404c1.119,0.299,1.899,0.544,2.343,0.733
		c0.441,0.191,0.789,0.468,1.041,0.831s0.378,0.814,0.378,1.354c0,0.527-0.153,1.024-0.462,1.489
		c-0.307,0.467-0.751,0.826-1.331,1.082c-0.58,0.254-1.236,0.382-1.969,0.382c-1.213,0-2.138-0.252-2.772-0.756
		C230.739,27.604,230.334,26.857,230.158,25.867z"/>
	<path fill="#2354A0" d="M246.181,25.647l1.635,0.202c-0.258,0.955-0.735,1.696-1.433,2.224s-1.588,0.791-2.672,0.791
		c-1.365,0-2.448-0.421-3.247-1.261c-0.801-0.842-1.2-2.021-1.2-3.538c0-1.57,0.404-2.789,1.213-3.656s1.857-1.301,3.146-1.301
		c1.248,0,2.268,0.425,3.059,1.274s1.187,2.045,1.187,3.586c0,0.094-0.003,0.234-0.009,0.422h-6.961
		c0.059,1.025,0.349,1.811,0.87,2.355s1.172,0.817,1.951,0.817c0.58,0,1.075-0.152,1.485-0.457S245.94,26.315,246.181,25.647z
		 M240.986,23.09h5.212c-0.07-0.785-0.27-1.374-0.598-1.767c-0.504-0.609-1.157-0.914-1.96-0.914c-0.727,0-1.337,0.243-1.833,0.729
		C241.313,21.625,241.039,22.275,240.986,23.09z"/>
	<path fill="#2354A0" d="M249.784,28.653v-9.334h1.424v1.415c0.363-0.662,0.699-1.099,1.006-1.31
		c0.309-0.211,0.646-0.316,1.016-0.316c0.533,0,1.075,0.17,1.626,0.51l-0.545,1.468c-0.387-0.229-0.773-0.343-1.16-0.343
		c-0.346,0-0.656,0.104-0.932,0.312c-0.275,0.209-0.472,0.497-0.589,0.866c-0.176,0.563-0.264,1.178-0.264,1.846v4.887H249.784z"/>
	<path fill="#2354A0" d="M255.163,25.867l1.564-0.246c0.088,0.627,0.332,1.107,0.734,1.441c0.4,0.334,0.962,0.501,1.683,0.501
		c0.727,0,1.266-0.147,1.617-0.444c0.352-0.295,0.527-0.643,0.527-1.041c0-0.357-0.155-0.639-0.466-0.844
		c-0.217-0.141-0.756-0.319-1.617-0.536c-1.16-0.293-1.965-0.546-2.412-0.761c-0.449-0.213-0.789-0.51-1.02-0.887
		c-0.232-0.379-0.348-0.796-0.348-1.253c0-0.416,0.096-0.802,0.285-1.155c0.191-0.355,0.45-0.649,0.778-0.884
		c0.246-0.182,0.581-0.335,1.007-0.462c0.424-0.125,0.88-0.188,1.366-0.188c0.732,0,1.376,0.105,1.929,0.316
		c0.555,0.211,0.963,0.497,1.227,0.856c0.264,0.361,0.445,0.843,0.545,1.446l-1.547,0.211c-0.07-0.48-0.273-0.855-0.611-1.125
		c-0.336-0.27-0.813-0.404-1.428-0.404c-0.727,0-1.245,0.12-1.556,0.36s-0.466,0.521-0.466,0.844c0,0.205,0.064,0.39,0.193,0.554
		c0.129,0.17,0.331,0.311,0.606,0.422c0.158,0.059,0.624,0.193,1.397,0.404c1.119,0.299,1.9,0.544,2.342,0.733
		c0.443,0.191,0.79,0.468,1.042,0.831s0.378,0.814,0.378,1.354c0,0.527-0.154,1.024-0.461,1.489
		c-0.309,0.467-0.752,0.826-1.332,1.082c-0.58,0.254-1.236,0.382-1.969,0.382c-1.213,0-2.137-0.252-2.773-0.756
		C255.745,27.604,255.339,26.857,255.163,25.867z"/>
</g>
</svg>
